<svg width="135" height="30" viewBox="0 0 135 30" fill="none" xmlns="http://www.w3.org/2000/svg">
<rect x="0.5" y="0.5" width="134" height="29" rx="14.5" fill="white" stroke="#E4D9D9"/>
<path d="M17 25C22.5228 25 27 20.5228 27 15C27 9.47715 22.5228 5 17 5C11.4772 5 7 9.47715 7 15C7 20.5228 11.4772 25 17 25Z" fill="#3B5998"/>
<path d="M19.514 15.3915H17.7296V21.9286H15.0261V15.3915H13.7404V13.094H15.0261V11.6074C15.0261 10.5442 15.5312 8.87946 17.7537 8.87946L19.7563 8.88783V11.1179H18.3033C18.0649 11.1179 17.7298 11.2369 17.7298 11.7441V13.0962H19.7502L19.514 15.3915Z" fill="white"/>
<path d="M34.432 18.056C34.0587 18.056 33.7227 17.992 33.424 17.864C33.1253 17.7307 32.8907 17.544 32.72 17.304C32.5493 17.064 32.464 16.784 32.464 16.464H33.44C33.4613 16.704 33.5547 16.9013 33.72 17.056C33.8907 17.2107 34.128 17.288 34.432 17.288C34.7467 17.288 34.992 17.2133 35.168 17.064C35.344 16.9093 35.432 16.712 35.432 16.472C35.432 16.2853 35.376 16.1333 35.264 16.016C35.1573 15.8987 35.0213 15.808 34.856 15.744C34.696 15.68 34.472 15.6107 34.184 15.536C33.8213 15.44 33.5253 15.344 33.296 15.248C33.072 15.1467 32.88 14.992 32.72 14.784C32.56 14.576 32.48 14.2987 32.48 13.952C32.48 13.632 32.56 13.352 32.72 13.112C32.88 12.872 33.104 12.688 33.392 12.56C33.68 12.432 34.0133 12.368 34.392 12.368C34.9307 12.368 35.3707 12.504 35.712 12.776C36.0587 13.0427 36.2507 13.4107 36.288 13.88H35.28C35.264 13.6773 35.168 13.504 34.992 13.36C34.816 13.216 34.584 13.144 34.296 13.144C34.0347 13.144 33.8213 13.2107 33.656 13.344C33.4907 13.4773 33.408 13.6693 33.408 13.92C33.408 14.0907 33.4587 14.232 33.56 14.344C33.6667 14.4507 33.8 14.536 33.96 14.6C34.12 14.664 34.3387 14.7333 34.616 14.808C34.984 14.9093 35.2827 15.0107 35.512 15.112C35.7467 15.2133 35.944 15.3707 36.104 15.584C36.2693 15.792 36.352 16.072 36.352 16.424C36.352 16.7067 36.2747 16.9733 36.12 17.224C35.9707 17.4747 35.7493 17.6773 35.456 17.832C35.168 17.9813 34.8267 18.056 34.432 18.056ZM37.8921 13.008C37.7268 13.008 37.5881 12.952 37.4761 12.84C37.3641 12.728 37.3081 12.5893 37.3081 12.424C37.3081 12.2587 37.3641 12.12 37.4761 12.008C37.5881 11.896 37.7268 11.84 37.8921 11.84C38.0521 11.84 38.1881 11.896 38.3001 12.008C38.4121 12.12 38.4681 12.2587 38.4681 12.424C38.4681 12.5893 38.4121 12.728 38.3001 12.84C38.1881 12.952 38.0521 13.008 37.8921 13.008ZM38.3401 13.592V18H37.4281V13.592H38.3401ZM41.3135 13.52C41.6548 13.52 41.9562 13.5893 42.2175 13.728C42.4842 13.8613 42.6922 14.0293 42.8415 14.232V13.592H43.7615V18.072C43.7615 18.4773 43.6762 18.8373 43.5055 19.152C43.3348 19.472 43.0868 19.7227 42.7615 19.904C42.4415 20.0853 42.0575 20.176 41.6095 20.176C41.0122 20.176 40.5162 20.0347 40.1215 19.752C39.7268 19.4747 39.5028 19.096 39.4495 18.616H40.3535C40.4228 18.8453 40.5695 19.0293 40.7935 19.168C41.0228 19.312 41.2948 19.384 41.6095 19.384C41.9775 19.384 42.2735 19.272 42.4975 19.048C42.7268 18.824 42.8415 18.4987 42.8415 18.072V17.336C42.6868 17.544 42.4762 17.72 42.2095 17.864C41.9482 18.0027 41.6495 18.072 41.3135 18.072C40.9295 18.072 40.5775 17.976 40.2575 17.784C39.9428 17.5867 39.6922 17.3147 39.5055 16.968C39.3242 16.616 39.2335 16.2187 39.2335 15.776C39.2335 15.3333 39.3242 14.9413 39.5055 14.6C39.6922 14.2587 39.9428 13.9947 40.2575 13.808C40.5775 13.616 40.9295 13.52 41.3135 13.52ZM42.8415 15.792C42.8415 15.488 42.7775 15.224 42.6495 15C42.5268 14.776 42.3642 14.6053 42.1615 14.488C41.9588 14.3707 41.7402 14.312 41.5055 14.312C41.2708 14.312 41.0522 14.3707 40.8495 14.488C40.6468 14.6 40.4815 14.768 40.3535 14.992C40.2308 15.2107 40.1695 15.472 40.1695 15.776C40.1695 16.08 40.2308 16.3467 40.3535 16.576C40.4815 16.8053 40.6468 16.9813 40.8495 17.104C41.0575 17.2213 41.2762 17.28 41.5055 17.28C41.7402 17.28 41.9588 17.2213 42.1615 17.104C42.3642 16.9867 42.5268 16.816 42.6495 16.592C42.7775 16.3627 42.8415 16.096 42.8415 15.792ZM47.1834 13.52C47.53 13.52 47.8394 13.592 48.1114 13.736C48.3887 13.88 48.6047 14.0933 48.7594 14.376C48.914 14.6587 48.9914 15 48.9914 15.4V18H48.0874V15.536C48.0874 15.1413 47.9887 14.84 47.7914 14.632C47.594 14.4187 47.3247 14.312 46.9834 14.312C46.642 14.312 46.37 14.4187 46.1674 14.632C45.97 14.84 45.8714 15.1413 45.8714 15.536V18H44.9594V13.592H45.8714V14.096C46.0207 13.9147 46.21 13.7733 46.4394 13.672C46.674 13.5707 46.922 13.52 47.1834 13.52ZM56.2248 13.592V18H55.3128V17.48C55.1688 17.6613 54.9795 17.8053 54.7448 17.912C54.5155 18.0133 54.2701 18.064 54.0088 18.064C53.6621 18.064 53.3501 17.992 53.0728 17.848C52.8008 17.704 52.5848 17.4907 52.4248 17.208C52.2701 16.9253 52.1928 16.584 52.1928 16.184V13.592H53.0968V16.048C53.0968 16.4427 53.1955 16.7467 53.3928 16.96C53.5901 17.168 53.8595 17.272 54.2008 17.272C54.5421 17.272 54.8115 17.168 55.0088 16.96C55.2115 16.7467 55.3128 16.4427 55.3128 16.048V13.592H56.2248ZM58.3401 14.24C58.4948 14.0373 58.7055 13.8667 58.9721 13.728C59.2388 13.5893 59.5401 13.52 59.8761 13.52C60.2601 13.52 60.6095 13.616 60.9241 13.808C61.2441 13.9947 61.4948 14.2587 61.6761 14.6C61.8575 14.9413 61.9481 15.3333 61.9481 15.776C61.9481 16.2187 61.8575 16.616 61.6761 16.968C61.4948 17.3147 61.2441 17.5867 60.9241 17.784C60.6095 17.976 60.2601 18.072 59.8761 18.072C59.5401 18.072 59.2415 18.0053 58.9801 17.872C58.7188 17.7333 58.5055 17.5627 58.3401 17.36V20.096H57.4281V13.592H58.3401V14.24ZM61.0201 15.776C61.0201 15.472 60.9561 15.2107 60.8281 14.992C60.7055 14.768 60.5401 14.6 60.3321 14.488C60.1295 14.3707 59.9108 14.312 59.6761 14.312C59.4468 14.312 59.2281 14.3707 59.0201 14.488C58.8175 14.6053 58.6521 14.776 58.5241 15C58.4015 15.224 58.3401 15.488 58.3401 15.792C58.3401 16.096 58.4015 16.3627 58.5241 16.592C58.6521 16.816 58.8175 16.9867 59.0201 17.104C59.2281 17.2213 59.4468 17.28 59.6761 17.28C59.9108 17.28 60.1295 17.2213 60.3321 17.104C60.5401 16.9813 60.7055 16.8053 60.8281 16.576C60.9561 16.3467 61.0201 16.08 61.0201 15.776ZM70.8481 13.592L69.4801 18H68.5201L67.6321 14.744L66.7441 18H65.7841L64.4081 13.592H65.3361L66.2561 17.136L67.1921 13.592H68.1441L69.0401 17.12L69.9521 13.592H70.8481ZM71.9937 13.008C71.8284 13.008 71.6897 12.952 71.5777 12.84C71.4657 12.728 71.4097 12.5893 71.4097 12.424C71.4097 12.2587 71.4657 12.12 71.5777 12.008C71.6897 11.896 71.8284 11.84 71.9937 11.84C72.1537 11.84 72.2897 11.896 72.4017 12.008C72.5137 12.12 72.5697 12.2587 72.5697 12.424C72.5697 12.5893 72.5137 12.728 72.4017 12.84C72.2897 12.952 72.1537 13.008 71.9937 13.008ZM72.4417 13.592V18H71.5297V13.592H72.4417ZM74.7031 14.336V16.776C74.7031 16.9413 74.7404 17.0613 74.8151 17.136C74.8951 17.2053 75.0284 17.24 75.2151 17.24H75.7751V18H75.0551C74.6444 18 74.3297 17.904 74.1111 17.712C73.8924 17.52 73.7831 17.208 73.7831 16.776V14.336H73.2631V13.592H73.7831V12.496H74.7031V13.592H75.7751V14.336H74.7031ZM78.8956 13.52C79.2316 13.52 79.5303 13.592 79.7916 13.736C80.0583 13.88 80.2663 14.0933 80.4156 14.376C80.5703 14.6587 80.6476 15 80.6476 15.4V18H79.7436V15.536C79.7436 15.1413 79.645 14.84 79.4476 14.632C79.2503 14.4187 78.981 14.312 78.6396 14.312C78.2983 14.312 78.0263 14.4187 77.8236 14.632C77.6263 14.84 77.5276 15.1413 77.5276 15.536V18H76.6156V12.08H77.5276V14.104C77.6823 13.9173 77.877 13.7733 78.1116 13.672C78.3516 13.5707 78.613 13.52 78.8956 13.52ZM87.1611 12.44V13.184H84.8011V14.824H86.6411V15.568H84.8011V18H83.8891V12.44H87.1611ZM87.7023 15.776C87.7023 15.3333 87.7929 14.9413 87.9743 14.6C88.1609 14.2587 88.4116 13.9947 88.7263 13.808C89.0463 13.616 89.3983 13.52 89.7823 13.52C90.1289 13.52 90.4303 13.5893 90.6863 13.728C90.9476 13.8613 91.1556 14.0293 91.3103 14.232V13.592H92.2303V18H91.3103V17.344C91.1556 17.552 90.9449 17.7253 90.6783 17.864C90.4116 18.0027 90.1076 18.072 89.7663 18.072C89.3876 18.072 89.0409 17.976 88.7263 17.784C88.4116 17.5867 88.1609 17.3147 87.9743 16.968C87.7929 16.616 87.7023 16.2187 87.7023 15.776ZM91.3103 15.792C91.3103 15.488 91.2463 15.224 91.1183 15C90.9956 14.776 90.8329 14.6053 90.6303 14.488C90.4276 14.3707 90.2089 14.312 89.9743 14.312C89.7396 14.312 89.5209 14.3707 89.3183 14.488C89.1156 14.6 88.9503 14.768 88.8223 14.992C88.6996 15.2107 88.6383 15.472 88.6383 15.776C88.6383 16.08 88.6996 16.3467 88.8223 16.576C88.9503 16.8053 89.1156 16.9813 89.3183 17.104C89.5263 17.2213 89.7449 17.28 89.9743 17.28C90.2089 17.28 90.4276 17.2213 90.6303 17.104C90.8329 16.9867 90.9956 16.816 91.1183 16.592C91.2463 16.3627 91.3103 16.096 91.3103 15.792ZM93.1241 15.792C93.1241 15.3387 93.2148 14.9413 93.3961 14.6C93.5828 14.2533 93.8388 13.9867 94.1641 13.8C94.4895 13.6133 94.8628 13.52 95.2841 13.52C95.8175 13.52 96.2575 13.648 96.6041 13.904C96.9561 14.1547 97.1935 14.5147 97.3161 14.984H96.3321C96.2521 14.7653 96.1241 14.5947 95.9481 14.472C95.7721 14.3493 95.5508 14.288 95.2841 14.288C94.9108 14.288 94.6121 14.4213 94.3881 14.688C94.1695 14.9493 94.0601 15.3173 94.0601 15.792C94.0601 16.2667 94.1695 16.6373 94.3881 16.904C94.6121 17.1707 94.9108 17.304 95.2841 17.304C95.8121 17.304 96.1615 17.072 96.3321 16.608H97.3161C97.1881 17.056 96.9481 17.4133 96.5961 17.68C96.2441 17.9413 95.8068 18.072 95.2841 18.072C94.8628 18.072 94.4895 17.9787 94.1641 17.792C93.8388 17.6 93.5828 17.3333 93.3961 16.992C93.2148 16.6453 93.1241 16.2453 93.1241 15.792ZM102.265 15.688C102.265 15.8533 102.254 16.0027 102.233 16.136H98.865C98.8917 16.488 99.0223 16.7707 99.257 16.984C99.4917 17.1973 99.7797 17.304 100.121 17.304C100.612 17.304 100.958 17.0987 101.161 16.688H102.145C102.012 17.0933 101.769 17.4267 101.417 17.688C101.07 17.944 100.638 18.072 100.121 18.072C99.6997 18.072 99.321 17.9787 98.985 17.792C98.6543 17.6 98.393 17.3333 98.201 16.992C98.0143 16.6453 97.921 16.2453 97.921 15.792C97.921 15.3387 98.0117 14.9413 98.193 14.6C98.3797 14.2533 98.6383 13.9867 98.969 13.8C99.305 13.6133 99.689 13.52 100.121 13.52C100.537 13.52 100.908 13.6107 101.233 13.792C101.558 13.9733 101.812 14.2293 101.993 14.56C102.174 14.8853 102.265 15.2613 102.265 15.688ZM101.313 15.4C101.308 15.064 101.188 14.7947 100.953 14.592C100.718 14.3893 100.428 14.288 100.081 14.288C99.7663 14.288 99.497 14.3893 99.273 14.592C99.049 14.7893 98.9157 15.0587 98.873 15.4H101.313ZM104.075 14.248C104.229 14.0347 104.44 13.8613 104.707 13.728C104.979 13.5893 105.28 13.52 105.611 13.52C106 13.52 106.352 13.6133 106.667 13.8C106.981 13.9867 107.229 14.2533 107.411 14.6C107.592 14.9413 107.683 15.3333 107.683 15.776C107.683 16.2187 107.592 16.616 107.411 16.968C107.229 17.3147 106.979 17.5867 106.659 17.784C106.344 17.976 105.995 18.072 105.611 18.072C105.269 18.072 104.965 18.0053 104.699 17.872C104.437 17.7387 104.229 17.568 104.075 17.36V18H103.163V12.08H104.075V14.248ZM106.755 15.776C106.755 15.472 106.691 15.2107 106.562 14.992C106.44 14.768 106.275 14.6 106.067 14.488C105.864 14.3707 105.645 14.312 105.411 14.312C105.181 14.312 104.963 14.3707 104.755 14.488C104.552 14.6053 104.387 14.776 104.259 15C104.136 15.224 104.075 15.488 104.075 15.792C104.075 16.096 104.136 16.3627 104.259 16.592C104.387 16.816 104.552 16.9867 104.755 17.104C104.963 17.2213 105.181 17.28 105.411 17.28C105.645 17.28 105.864 17.2213 106.067 17.104C106.275 16.9813 106.44 16.8053 106.562 16.576C106.691 16.3467 106.755 16.08 106.755 15.776ZM110.496 18.072C110.08 18.072 109.704 17.9787 109.368 17.792C109.032 17.6 108.768 17.3333 108.576 16.992C108.384 16.6453 108.288 16.2453 108.288 15.792C108.288 15.344 108.387 14.9467 108.584 14.6C108.782 14.2533 109.051 13.9867 109.392 13.8C109.734 13.6133 110.115 13.52 110.536 13.52C110.958 13.52 111.339 13.6133 111.68 13.8C112.022 13.9867 112.291 14.2533 112.488 14.6C112.686 14.9467 112.784 15.344 112.784 15.792C112.784 16.24 112.683 16.6373 112.48 16.984C112.278 17.3307 112 17.6 111.648 17.792C111.302 17.9787 110.918 18.072 110.496 18.072ZM110.496 17.28C110.731 17.28 110.95 17.224 111.152 17.112C111.36 17 111.528 16.832 111.656 16.608C111.784 16.384 111.848 16.112 111.848 15.792C111.848 15.472 111.787 15.2027 111.664 14.984C111.542 14.76 111.379 14.592 111.176 14.48C110.974 14.368 110.755 14.312 110.52 14.312C110.286 14.312 110.067 14.368 109.864 14.48C109.667 14.592 109.51 14.76 109.392 14.984C109.275 15.2027 109.216 15.472 109.216 15.792C109.216 16.2667 109.336 16.6347 109.576 16.896C109.822 17.152 110.128 17.28 110.496 17.28ZM115.598 18.072C115.182 18.072 114.806 17.9787 114.47 17.792C114.134 17.6 113.87 17.3333 113.678 16.992C113.486 16.6453 113.39 16.2453 113.39 15.792C113.39 15.344 113.489 14.9467 113.686 14.6C113.883 14.2533 114.153 13.9867 114.494 13.8C114.835 13.6133 115.217 13.52 115.638 13.52C116.059 13.52 116.441 13.6133 116.782 13.8C117.123 13.9867 117.393 14.2533 117.59 14.6C117.787 14.9467 117.886 15.344 117.886 15.792C117.886 16.24 117.785 16.6373 117.582 16.984C117.379 17.3307 117.102 17.6 116.75 17.792C116.403 17.9787 116.019 18.072 115.598 18.072ZM115.598 17.28C115.833 17.28 116.051 17.224 116.254 17.112C116.462 17 116.63 16.832 116.758 16.608C116.886 16.384 116.95 16.112 116.95 15.792C116.95 15.472 116.889 15.2027 116.766 14.984C116.643 14.76 116.481 14.592 116.278 14.48C116.075 14.368 115.857 14.312 115.622 14.312C115.387 14.312 115.169 14.368 114.966 14.48C114.769 14.592 114.611 14.76 114.494 14.984C114.377 15.2027 114.318 15.472 114.318 15.792C114.318 16.2667 114.438 16.6347 114.678 16.896C114.923 17.152 115.23 17.28 115.598 17.28ZM120.532 15.8L122.564 18H121.332L119.7 16.104V18H118.788V12.08H119.7V15.52L121.3 13.592H122.564L120.532 15.8Z" fill="black"/>
</svg>
