<svg width="135" height="30" viewBox="0 0 135 30" fill="none" xmlns="http://www.w3.org/2000/svg">
<rect x="0.5" y="0.5" width="134" height="29" rx="14.5" fill="white" stroke="#E4D9D9"/>
<path d="M12.4324 17.0863L11.7362 19.6852L9.19176 19.739C8.43133 18.3286 8 16.7149 8 15C8 13.3418 8.40328 11.778 9.11812 10.4011H9.11867L11.384 10.8164L12.3763 13.0682C12.1686 13.6737 12.0554 14.3237 12.0554 15C12.0555 15.7341 12.1885 16.4374 12.4324 17.0863Z" fill="#FBBB00"/>
<path d="M27.8253 13.1318C27.9401 13.7368 28 14.3615 28 15C28 15.7159 27.9247 16.4143 27.7813 17.0879C27.2945 19.3802 26.0225 21.3818 24.2605 22.7983L24.2599 22.7978L21.4066 22.6522L21.0028 20.1313C22.172 19.4456 23.0858 18.3725 23.5671 17.0879H18.2198V13.1318H23.6451H27.8253Z" fill="#518EF8"/>
<path d="M24.2599 22.7978L24.2604 22.7984C22.5467 24.1758 20.3698 25 18 25C14.1918 25 10.8808 22.8715 9.19177 19.739L12.4324 17.0863C13.2769 19.3401 15.4511 20.9445 18 20.9445C19.0956 20.9445 20.122 20.6484 21.0027 20.1313L24.2599 22.7978Z" fill="#28B446"/>
<path d="M24.383 7.30219L21.1434 9.95437C20.2319 9.38461 19.1544 9.05547 18 9.05547C15.3934 9.05547 13.1786 10.7335 12.3764 13.0681L9.11871 10.4011H9.11816C10.7825 7.1923 14.1352 5 18 5C20.4264 5 22.6511 5.8643 24.383 7.30219Z" fill="#F14336"/>
<path d="M35.736 19.063C35.316 19.063 34.938 18.991 34.602 18.847C34.266 18.697 34.002 18.487 33.81 18.217C33.618 17.947 33.522 17.632 33.522 17.272H34.62C34.644 17.542 34.749 17.764 34.935 17.938C35.127 18.112 35.394 18.199 35.736 18.199C36.09 18.199 36.366 18.115 36.564 17.947C36.762 17.773 36.861 17.551 36.861 17.281C36.861 17.071 36.798 16.9 36.672 16.768C36.552 16.636 36.399 16.534 36.213 16.462C36.033 16.39 35.781 16.312 35.457 16.228C35.049 16.12 34.716 16.012 34.458 15.904C34.206 15.79 33.99 15.616 33.81 15.382C33.63 15.148 33.54 14.836 33.54 14.446C33.54 14.086 33.63 13.771 33.81 13.501C33.99 13.231 34.242 13.024 34.566 12.88C34.89 12.736 35.265 12.664 35.691 12.664C36.297 12.664 36.792 12.817 37.176 13.123C37.566 13.423 37.782 13.837 37.824 14.365H36.69C36.672 14.137 36.564 13.942 36.366 13.78C36.168 13.618 35.907 13.537 35.583 13.537C35.289 13.537 35.049 13.612 34.863 13.762C34.677 13.912 34.584 14.128 34.584 14.41C34.584 14.602 34.641 14.761 34.755 14.887C34.875 15.007 35.025 15.103 35.205 15.175C35.385 15.247 35.631 15.325 35.943 15.409C36.357 15.523 36.693 15.637 36.951 15.751C37.215 15.865 37.437 16.042 37.617 16.282C37.803 16.516 37.896 16.831 37.896 17.227C37.896 17.545 37.809 17.845 37.635 18.127C37.467 18.409 37.218 18.637 36.888 18.811C36.564 18.979 36.18 19.063 35.736 19.063ZM39.6286 13.384C39.4426 13.384 39.2866 13.321 39.1606 13.195C39.0346 13.069 38.9716 12.913 38.9716 12.727C38.9716 12.541 39.0346 12.385 39.1606 12.259C39.2866 12.133 39.4426 12.07 39.6286 12.07C39.8086 12.07 39.9616 12.133 40.0876 12.259C40.2136 12.385 40.2766 12.541 40.2766 12.727C40.2766 12.913 40.2136 13.069 40.0876 13.195C39.9616 13.321 39.8086 13.384 39.6286 13.384ZM40.1326 14.041V19H39.1066V14.041H40.1326ZM43.4777 13.96C43.8617 13.96 44.2007 14.038 44.4947 14.194C44.7947 14.344 45.0287 14.533 45.1967 14.761V14.041H46.2317V19.081C46.2317 19.537 46.1357 19.942 45.9437 20.296C45.7517 20.656 45.4727 20.938 45.1067 21.142C44.7467 21.346 44.3147 21.448 43.8107 21.448C43.1387 21.448 42.5807 21.289 42.1367 20.971C41.6927 20.659 41.4407 20.233 41.3807 19.693H42.3977C42.4757 19.951 42.6407 20.158 42.8927 20.314C43.1507 20.476 43.4567 20.557 43.8107 20.557C44.2247 20.557 44.5577 20.431 44.8097 20.179C45.0677 19.927 45.1967 19.561 45.1967 19.081V18.253C45.0227 18.487 44.7857 18.685 44.4857 18.847C44.1917 19.003 43.8557 19.081 43.4777 19.081C43.0457 19.081 42.6497 18.973 42.2897 18.757C41.9357 18.535 41.6537 18.229 41.4437 17.839C41.2397 17.443 41.1377 16.996 41.1377 16.498C41.1377 16 41.2397 15.559 41.4437 15.175C41.6537 14.791 41.9357 14.494 42.2897 14.284C42.6497 14.068 43.0457 13.96 43.4777 13.96ZM45.1967 16.516C45.1967 16.174 45.1247 15.877 44.9807 15.625C44.8427 15.373 44.6597 15.181 44.4317 15.049C44.2037 14.917 43.9577 14.851 43.6937 14.851C43.4297 14.851 43.1837 14.917 42.9557 15.049C42.7277 15.175 42.5417 15.364 42.3977 15.616C42.2597 15.862 42.1907 16.156 42.1907 16.498C42.1907 16.84 42.2597 17.14 42.3977 17.398C42.5417 17.656 42.7277 17.854 42.9557 17.992C43.1897 18.124 43.4357 18.19 43.6937 18.19C43.9577 18.19 44.2037 18.124 44.4317 17.992C44.6597 17.86 44.8427 17.668 44.9807 17.416C45.1247 17.158 45.1967 16.858 45.1967 16.516ZM50.0813 13.96C50.4713 13.96 50.8193 14.041 51.1253 14.203C51.4373 14.365 51.6803 14.605 51.8543 14.923C52.0283 15.241 52.1153 15.625 52.1153 16.075V19H51.0983V16.228C51.0983 15.784 50.9873 15.445 50.7653 15.211C50.5433 14.971 50.2403 14.851 49.8563 14.851C49.4723 14.851 49.1663 14.971 48.9383 15.211C48.7163 15.445 48.6053 15.784 48.6053 16.228V19H47.5793V14.041H48.6053V14.608C48.7733 14.404 48.9863 14.245 49.2443 14.131C49.5083 14.017 49.7873 13.96 50.0813 13.96ZM60.2529 14.041V19H59.2269V18.415C59.0649 18.619 58.8519 18.781 58.5879 18.901C58.3299 19.015 58.0539 19.072 57.7599 19.072C57.3699 19.072 57.0189 18.991 56.7069 18.829C56.4009 18.667 56.1579 18.427 55.9779 18.109C55.8039 17.791 55.7169 17.407 55.7169 16.957V14.041H56.7339V16.804C56.7339 17.248 56.8449 17.59 57.0669 17.83C57.2889 18.064 57.5919 18.181 57.9759 18.181C58.3599 18.181 58.6629 18.064 58.8849 17.83C59.1129 17.59 59.2269 17.248 59.2269 16.804V14.041H60.2529ZM62.6326 14.77C62.8066 14.542 63.0436 14.35 63.3436 14.194C63.6436 14.038 63.9826 13.96 64.3606 13.96C64.7926 13.96 65.1856 14.068 65.5396 14.284C65.8996 14.494 66.1816 14.791 66.3856 15.175C66.5896 15.559 66.6916 16 66.6916 16.498C66.6916 16.996 66.5896 17.443 66.3856 17.839C66.1816 18.229 65.8996 18.535 65.5396 18.757C65.1856 18.973 64.7926 19.081 64.3606 19.081C63.9826 19.081 63.6466 19.006 63.3526 18.856C63.0586 18.7 62.8186 18.508 62.6326 18.28V21.358H61.6066V14.041H62.6326V14.77ZM65.6476 16.498C65.6476 16.156 65.5756 15.862 65.4316 15.616C65.2936 15.364 65.1076 15.175 64.8736 15.049C64.6456 14.917 64.3996 14.851 64.1356 14.851C63.8776 14.851 63.6316 14.917 63.3976 15.049C63.1696 15.181 62.9836 15.373 62.8396 15.625C62.7016 15.877 62.6326 16.174 62.6326 16.516C62.6326 16.858 62.7016 17.158 62.8396 17.416C62.9836 17.668 63.1696 17.86 63.3976 17.992C63.6316 18.124 63.8776 18.19 64.1356 18.19C64.3996 18.19 64.6456 18.124 64.8736 17.992C65.1076 17.854 65.2936 17.656 65.4316 17.398C65.5756 17.14 65.6476 16.84 65.6476 16.498ZM76.7041 14.041L75.1651 19H74.0851L73.0861 15.337L72.0871 19H71.0071L69.4591 14.041H70.5031L71.5381 18.028L72.5911 14.041H73.6621L74.6701 18.01L75.6961 14.041H76.7041ZM77.9929 13.384C77.8069 13.384 77.6509 13.321 77.5249 13.195C77.3989 13.069 77.3359 12.913 77.3359 12.727C77.3359 12.541 77.3989 12.385 77.5249 12.259C77.6509 12.133 77.8069 12.07 77.9929 12.07C78.1729 12.07 78.3259 12.133 78.4519 12.259C78.5779 12.385 78.6409 12.541 78.6409 12.727C78.6409 12.913 78.5779 13.069 78.4519 13.195C78.3259 13.321 78.1729 13.384 77.9929 13.384ZM78.4969 14.041V19H77.4709V14.041H78.4969ZM81.0409 14.878V17.623C81.0409 17.809 81.0829 17.944 81.1669 18.028C81.2569 18.106 81.4069 18.145 81.6169 18.145H82.2469V19H81.4369C80.9749 19 80.6209 18.892 80.3749 18.676C80.1289 18.46 80.0059 18.109 80.0059 17.623V14.878H79.4209V14.041H80.0059V12.808H81.0409V14.041H82.2469V14.878H81.0409ZM85.7576 13.96C86.1356 13.96 86.4716 14.041 86.7656 14.203C87.0656 14.365 87.2996 14.605 87.4676 14.923C87.6416 15.241 87.7286 15.625 87.7286 16.075V19H86.7116V16.228C86.7116 15.784 86.6006 15.445 86.3786 15.211C86.1566 14.971 85.8536 14.851 85.4696 14.851C85.0856 14.851 84.7796 14.971 84.5516 15.211C84.3296 15.445 84.2186 15.784 84.2186 16.228V19H83.1926V12.34H84.2186V14.617C84.3926 14.407 84.6116 14.245 84.8756 14.131C85.1456 14.017 85.4396 13.96 85.7576 13.96ZM95.9022 14.545C95.7402 14.233 95.5152 13.999 95.2272 13.843C94.9392 13.681 94.6062 13.6 94.2282 13.6C93.8142 13.6 93.4452 13.693 93.1212 13.879C92.7972 14.065 92.5422 14.329 92.3562 14.671C92.1762 15.013 92.0862 15.409 92.0862 15.859C92.0862 16.309 92.1762 16.708 92.3562 17.056C92.5422 17.398 92.7972 17.662 93.1212 17.848C93.4452 18.034 93.8142 18.127 94.2282 18.127C94.7862 18.127 95.2392 17.971 95.5872 17.659C95.9352 17.347 96.1482 16.924 96.2262 16.39H93.8772V15.571H97.3242V16.372C97.2582 16.858 97.0842 17.305 96.8022 17.713C96.5262 18.121 96.1632 18.448 95.7132 18.694C95.2692 18.934 94.7742 19.054 94.2282 19.054C93.6402 19.054 93.1032 18.919 92.6172 18.649C92.1312 18.373 91.7442 17.992 91.4562 17.506C91.1742 17.02 91.0332 16.471 91.0332 15.859C91.0332 15.247 91.1742 14.698 91.4562 14.212C91.7442 13.726 92.1312 13.348 92.6172 13.078C93.1092 12.802 93.6462 12.664 94.2282 12.664C94.8942 12.664 95.4852 12.829 96.0012 13.159C96.5232 13.483 96.9012 13.945 97.1352 14.545H95.9022ZM100.487 19.081C100.019 19.081 99.5961 18.976 99.2181 18.766C98.8401 18.55 98.5431 18.25 98.3271 17.866C98.1111 17.476 98.0031 17.026 98.0031 16.516C98.0031 16.012 98.1141 15.565 98.3361 15.175C98.5581 14.785 98.8611 14.485 99.2451 14.275C99.6291 14.065 100.058 13.96 100.532 13.96C101.006 13.96 101.435 14.065 101.819 14.275C102.203 14.485 102.506 14.785 102.728 15.175C102.95 15.565 103.061 16.012 103.061 16.516C103.061 17.02 102.947 17.467 102.719 17.857C102.491 18.247 102.179 18.55 101.783 18.766C101.393 18.976 100.961 19.081 100.487 19.081ZM100.487 18.19C100.751 18.19 100.997 18.127 101.225 18.001C101.459 17.875 101.648 17.686 101.792 17.434C101.936 17.182 102.008 16.876 102.008 16.516C102.008 16.156 101.939 15.853 101.801 15.607C101.663 15.355 101.48 15.166 101.252 15.04C101.024 14.914 100.778 14.851 100.514 14.851C100.25 14.851 100.004 14.914 99.7761 15.04C99.5541 15.166 99.3771 15.355 99.2451 15.607C99.1131 15.853 99.0471 16.156 99.0471 16.516C99.0471 17.05 99.1821 17.464 99.4521 17.758C99.7281 18.046 100.073 18.19 100.487 18.19ZM106.226 19.081C105.758 19.081 105.335 18.976 104.957 18.766C104.579 18.55 104.282 18.25 104.066 17.866C103.85 17.476 103.742 17.026 103.742 16.516C103.742 16.012 103.853 15.565 104.075 15.175C104.297 14.785 104.6 14.485 104.984 14.275C105.368 14.065 105.797 13.96 106.271 13.96C106.745 13.96 107.174 14.065 107.558 14.275C107.942 14.485 108.245 14.785 108.467 15.175C108.689 15.565 108.8 16.012 108.8 16.516C108.8 17.02 108.686 17.467 108.458 17.857C108.23 18.247 107.918 18.55 107.522 18.766C107.132 18.976 106.7 19.081 106.226 19.081ZM106.226 18.19C106.49 18.19 106.736 18.127 106.964 18.001C107.198 17.875 107.387 17.686 107.531 17.434C107.675 17.182 107.747 16.876 107.747 16.516C107.747 16.156 107.678 15.853 107.54 15.607C107.402 15.355 107.219 15.166 106.991 15.04C106.763 14.914 106.517 14.851 106.253 14.851C105.989 14.851 105.743 14.914 105.515 15.04C105.293 15.166 105.116 15.355 104.984 15.607C104.852 15.853 104.786 16.156 104.786 16.516C104.786 17.05 104.921 17.464 105.191 17.758C105.467 18.046 105.812 18.19 106.226 18.19ZM111.813 13.96C112.197 13.96 112.536 14.038 112.83 14.194C113.13 14.344 113.364 14.533 113.532 14.761V14.041H114.567V19.081C114.567 19.537 114.471 19.942 114.279 20.296C114.087 20.656 113.808 20.938 113.442 21.142C113.082 21.346 112.65 21.448 112.146 21.448C111.474 21.448 110.916 21.289 110.472 20.971C110.028 20.659 109.776 20.233 109.716 19.693H110.733C110.811 19.951 110.976 20.158 111.228 20.314C111.486 20.476 111.792 20.557 112.146 20.557C112.56 20.557 112.893 20.431 113.145 20.179C113.403 19.927 113.532 19.561 113.532 19.081V18.253C113.358 18.487 113.121 18.685 112.821 18.847C112.527 19.003 112.191 19.081 111.813 19.081C111.381 19.081 110.985 18.973 110.625 18.757C110.271 18.535 109.989 18.229 109.779 17.839C109.575 17.443 109.473 16.996 109.473 16.498C109.473 16 109.575 15.559 109.779 15.175C109.989 14.791 110.271 14.494 110.625 14.284C110.985 14.068 111.381 13.96 111.813 13.96ZM113.532 16.516C113.532 16.174 113.46 15.877 113.316 15.625C113.178 15.373 112.995 15.181 112.767 15.049C112.539 14.917 112.293 14.851 112.029 14.851C111.765 14.851 111.519 14.917 111.291 15.049C111.063 15.175 110.877 15.364 110.733 15.616C110.595 15.862 110.526 16.156 110.526 16.498C110.526 16.84 110.595 17.14 110.733 17.398C110.877 17.656 111.063 17.854 111.291 17.992C111.525 18.124 111.771 18.19 112.029 18.19C112.293 18.19 112.539 18.124 112.767 17.992C112.995 17.86 113.178 17.668 113.316 17.416C113.46 17.158 113.532 16.858 113.532 16.516ZM116.94 12.34V19H115.914V12.34H116.94ZM122.832 16.399C122.832 16.585 122.82 16.753 122.796 16.903H119.007C119.037 17.299 119.184 17.617 119.448 17.857C119.712 18.097 120.036 18.217 120.42 18.217C120.972 18.217 121.362 17.986 121.59 17.524H122.697C122.547 17.98 122.274 18.355 121.878 18.649C121.488 18.937 121.002 19.081 120.42 19.081C119.946 19.081 119.52 18.976 119.142 18.766C118.77 18.55 118.476 18.25 118.26 17.866C118.05 17.476 117.945 17.026 117.945 16.516C117.945 16.006 118.047 15.559 118.251 15.175C118.461 14.785 118.752 14.485 119.124 14.275C119.502 14.065 119.934 13.96 120.42 13.96C120.888 13.96 121.305 14.062 121.671 14.266C122.037 14.47 122.322 14.758 122.526 15.13C122.73 15.496 122.832 15.919 122.832 16.399ZM121.761 16.075C121.755 15.697 121.62 15.394 121.356 15.166C121.092 14.938 120.765 14.824 120.375 14.824C120.021 14.824 119.718 14.938 119.466 15.166C119.214 15.388 119.064 15.691 119.016 16.075H121.761Z" fill="black"/>
</svg>
