<svg width="30" height="30" viewBox="0 0 30 30" fill="none" xmlns="http://www.w3.org/2000/svg">
<g clip-path="url(#clip0_1_2074)">
<path d="M8.92329 10.1039C6.6975 12.9647 6.73647 18.0466 9.58117 20.5658C12.811 23.4243 17.3565 23.3945 20.215 20.7652C23.6419 17.6111 23.4448 12.3618 20.4144 9.38876C17.368 6.39966 11.9238 6.24378 8.92329 10.1039Z" fill="#FCC11A"/>
<path d="M12.4973 9.12278C11.6171 8.73308 10.6544 9.79441 10.2349 10.5187C9.81538 11.2454 9.42571 12.6689 10.3197 13.0334C11.2137 13.3955 11.8555 12.7812 12.4996 11.7199C13.1392 10.6586 13.5036 9.56977 12.4973 9.12278Z" fill="#FEE269"/>
<path d="M14.7894 5.13442C14.5762 5.53328 14.6473 5.84043 15.0713 5.94131C15.4954 6.04215 18.1338 6.47082 18.3561 6.48457C18.6793 6.50519 18.7985 6.26223 18.7596 5.98027C18.7183 5.69832 18.0742 1.74875 18.0146 1.38659C17.955 1.02443 17.5722 0.662221 17.2077 1.1459C16.8432 1.62957 14.9498 4.83414 14.7894 5.13442Z" fill="#FFA722"/>
<path d="M21.6199 7.87593C21.2051 8.00429 21.2165 8.25873 21.4388 8.58194C21.6612 8.90515 23.1924 11.241 23.3323 11.4037C23.4744 11.5642 23.7151 11.6054 23.9168 11.3624C24.1185 11.1218 26.6354 7.59168 26.8188 7.37161C27.1214 7.00945 26.9403 6.62663 26.4772 6.74583C26.1242 6.83983 21.8813 7.7957 21.6199 7.87593Z" fill="#FFA722"/>
<path d="M24.7838 14.6678C24.4858 14.4982 24.0984 14.5463 23.9975 14.9291C23.8967 15.3119 23.4543 18.0924 23.413 18.3354C23.3717 18.5784 23.5551 18.8191 23.8554 18.7595C24.1557 18.6999 28.3138 18.0833 28.5912 18.0145C29.0749 17.893 29.2353 17.4093 28.7333 17.0472C28.4078 16.8111 25.0657 14.8283 24.7838 14.6678Z" fill="#FFA722"/>
<path d="M21.4572 21.2558C21.7781 21.0839 22.0623 21.2146 22.1425 21.579C22.2228 21.9412 23.1099 25.6501 23.252 26.3355C23.3231 26.6793 22.9288 26.9613 22.6079 26.7595C22.2847 26.5578 18.7821 24.1166 18.5575 23.9171C18.2343 23.6352 18.4589 23.3418 18.6171 23.1928C18.938 22.8879 21.1546 21.4186 21.4572 21.2558Z" fill="#FFA722"/>
<path d="M11.704 23.2912C11.2983 23.2523 11.1791 23.6144 11.241 23.9354C11.3006 24.2586 11.9057 28.3457 11.947 28.6505C12.0066 29.0929 12.4719 29.2763 12.7722 28.8316C13.0725 28.3869 15.1447 25.0723 15.312 24.7606C15.6146 24.1967 15.3922 24.0752 15.0897 23.9354C14.7894 23.7955 12.1281 23.3325 11.704 23.2912Z" fill="#FFA722"/>
<path d="M5.90211 18.5967C6.18404 18.1336 6.54622 18.2551 6.80985 18.6975C6.98864 19.0001 8.50152 21.0356 8.64365 21.2557C8.78576 21.478 8.84537 21.8998 8.40296 22.0007C7.95596 22.1038 4.35024 23.0505 3.78634 23.1514C3.22245 23.2522 2.89924 22.8098 3.26142 22.3262C3.47231 22.0419 5.74165 18.8603 5.90211 18.5967Z" fill="#FFA722"/>
<path d="M5.13671 15.0896C5.65248 15.3188 5.89544 15.2363 6.00319 14.8673C6.1453 14.3836 6.56709 12.167 6.58771 11.6627C6.60146 11.3349 6.46622 11.0186 5.96193 11.0988C5.45764 11.179 1.83127 11.6856 1.36824 11.8461C0.82956 12.034 0.86853 12.6254 1.22613 12.8134C1.65019 13.0357 4.77224 14.9291 5.13671 15.0896Z" fill="#FFA722"/>
<path d="M11.4032 6.62654C11.6943 6.39504 11.6049 6.06266 11.3436 5.88156C11.0823 5.70048 7.84564 3.36009 7.43533 3.03917C7.07314 2.75722 6.62844 2.85807 6.74993 3.5022C6.83703 3.96523 7.86855 8.01795 7.93962 8.29761C8.01985 8.62082 8.26283 8.78128 8.54476 8.57956C8.82213 8.38013 11.1006 6.86952 11.4032 6.62654Z" fill="#FFA722"/>
</g>
<defs>
<clipPath id="clip0_1_2074">
<rect width="30" height="30" fill="white"/>
</clipPath>
</defs>
</svg>
